<mxfile host="app.diagrams.net" agent="Mozilla/5.0 (Windows NT 10.0; Win64; x64) AppleWebKit/537.36 (KHTML, like Gecko) Chrome/134.0.0.0 Safari/537.36" version="26.1.0" pages="2">
  <diagram id="Ht1M8jgEwFfnCIfOTk4-" name="old">
    <mxGraphModel dx="3229" dy="1029" grid="1" gridSize="10" guides="1" tooltips="1" connect="1" arrows="1" fold="1" page="1" pageScale="1" pageWidth="1169" pageHeight="827" math="0" shadow="0">
      <root>
        <mxCell id="0" />
        <mxCell id="1" parent="0" />
        <mxCell id="NVOBJm6X1n0PsRJ2aKKN-3" style="edgeStyle=orthogonalEdgeStyle;rounded=0;orthogonalLoop=1;jettySize=auto;html=1;" edge="1" parent="1" source="UEzPUAAOIrF-is8g5C7q-109" target="UEzPUAAOIrF-is8g5C7q-114">
          <mxGeometry relative="1" as="geometry" />
        </mxCell>
        <mxCell id="UEzPUAAOIrF-is8g5C7q-109" value="Customer" style="outlineConnect=0;gradientColor=none;fontColor=#545B64;strokeColor=none;fillColor=#879196;dashed=0;verticalLabelPosition=bottom;verticalAlign=top;align=center;html=1;fontSize=12;fontStyle=0;aspect=fixed;shape=mxgraph.aws4.illustration_desktop;pointerEvents=1;labelBackgroundColor=#ffffff;" parent="1" vertex="1">
          <mxGeometry x="10" y="368" width="100" height="91" as="geometry" />
        </mxCell>
        <mxCell id="NVOBJm6X1n0PsRJ2aKKN-6" value="" style="edgeStyle=orthogonalEdgeStyle;rounded=0;orthogonalLoop=1;jettySize=auto;html=1;" edge="1" parent="1" source="UEzPUAAOIrF-is8g5C7q-113" target="NVOBJm6X1n0PsRJ2aKKN-5">
          <mxGeometry relative="1" as="geometry" />
        </mxCell>
        <mxCell id="UEzPUAAOIrF-is8g5C7q-113" value="Lambda" style="outlineConnect=0;fontColor=#232F3E;gradientColor=#F78E04;gradientDirection=north;fillColor=#D05C17;strokeColor=#ffffff;dashed=0;verticalLabelPosition=bottom;verticalAlign=top;align=center;html=1;fontSize=12;fontStyle=0;aspect=fixed;shape=mxgraph.aws4.resourceIcon;resIcon=mxgraph.aws4.lambda;labelBackgroundColor=#ffffff;spacingTop=3;" parent="1" vertex="1">
          <mxGeometry x="270" y="368" width="90" height="90" as="geometry" />
        </mxCell>
        <mxCell id="NVOBJm6X1n0PsRJ2aKKN-4" style="edgeStyle=orthogonalEdgeStyle;rounded=0;orthogonalLoop=1;jettySize=auto;html=1;" edge="1" parent="1" source="UEzPUAAOIrF-is8g5C7q-114" target="UEzPUAAOIrF-is8g5C7q-113">
          <mxGeometry relative="1" as="geometry" />
        </mxCell>
        <mxCell id="UEzPUAAOIrF-is8g5C7q-114" value="Amazon API&lt;br&gt;Gateway&lt;br&gt;" style="outlineConnect=0;fontColor=#232F3E;gradientColor=#945DF2;gradientDirection=north;fillColor=#5A30B5;strokeColor=#ffffff;dashed=0;verticalLabelPosition=bottom;verticalAlign=top;align=center;html=1;fontSize=12;fontStyle=0;aspect=fixed;shape=mxgraph.aws4.resourceIcon;resIcon=mxgraph.aws4.api_gateway;labelBackgroundColor=#ffffff;" parent="1" vertex="1">
          <mxGeometry x="149.5" y="374.5" width="78" height="78" as="geometry" />
        </mxCell>
        <mxCell id="NVOBJm6X1n0PsRJ2aKKN-11" value="" style="edgeStyle=orthogonalEdgeStyle;rounded=0;orthogonalLoop=1;jettySize=auto;html=1;" edge="1" parent="1" source="NVOBJm6X1n0PsRJ2aKKN-5" target="NVOBJm6X1n0PsRJ2aKKN-7">
          <mxGeometry relative="1" as="geometry" />
        </mxCell>
        <mxCell id="NVOBJm6X1n0PsRJ2aKKN-5" value="Dynamo DB&lt;div&gt;Cambio&lt;/div&gt;" style="outlineConnect=0;dashed=0;verticalLabelPosition=bottom;verticalAlign=top;align=center;html=1;shape=mxgraph.aws3.dynamo_db;fillColor=#2E73B8;gradientColor=none;" vertex="1" parent="1">
          <mxGeometry x="390" y="373" width="72" height="81" as="geometry" />
        </mxCell>
        <mxCell id="NVOBJm6X1n0PsRJ2aKKN-12" value="" style="edgeStyle=orthogonalEdgeStyle;rounded=0;orthogonalLoop=1;jettySize=auto;html=1;" edge="1" parent="1" source="NVOBJm6X1n0PsRJ2aKKN-7" target="NVOBJm6X1n0PsRJ2aKKN-9">
          <mxGeometry relative="1" as="geometry" />
        </mxCell>
        <mxCell id="NVOBJm6X1n0PsRJ2aKKN-7" value="DynamoDB&lt;div&gt;Stream&lt;/div&gt;&lt;div&gt;Evento&lt;/div&gt;" style="sketch=0;outlineConnect=0;fontColor=#232F3E;gradientColor=none;fillColor=#C925D1;strokeColor=none;dashed=0;verticalLabelPosition=bottom;verticalAlign=top;align=center;html=1;fontSize=12;fontStyle=0;aspect=fixed;pointerEvents=1;shape=mxgraph.aws4.dynamodb_stream;" vertex="1" parent="1">
          <mxGeometry x="510" y="374" width="78" height="78" as="geometry" />
        </mxCell>
        <mxCell id="NVOBJm6X1n0PsRJ2aKKN-16" style="edgeStyle=orthogonalEdgeStyle;rounded=0;orthogonalLoop=1;jettySize=auto;html=1;" edge="1" parent="1" source="NVOBJm6X1n0PsRJ2aKKN-9" target="NVOBJm6X1n0PsRJ2aKKN-14">
          <mxGeometry relative="1" as="geometry">
            <mxPoint x="744.9999999999998" y="120" as="targetPoint" />
          </mxGeometry>
        </mxCell>
        <mxCell id="NVOBJm6X1n0PsRJ2aKKN-9" value="Lambda&lt;div&gt;&lt;div&gt;Procesador&lt;/div&gt;&lt;div&gt;de eventos&lt;/div&gt;&lt;/div&gt;" style="outlineConnect=0;fontColor=#232F3E;gradientColor=#F78E04;gradientDirection=north;fillColor=#D05C17;strokeColor=#ffffff;dashed=0;verticalLabelPosition=bottom;verticalAlign=top;align=center;html=1;fontSize=12;fontStyle=0;aspect=fixed;shape=mxgraph.aws4.resourceIcon;resIcon=mxgraph.aws4.lambda;labelBackgroundColor=#ffffff;spacingTop=3;" vertex="1" parent="1">
          <mxGeometry x="630" y="368" width="90" height="90" as="geometry" />
        </mxCell>
        <mxCell id="NVOBJm6X1n0PsRJ2aKKN-20" value="" style="edgeStyle=orthogonalEdgeStyle;rounded=0;orthogonalLoop=1;jettySize=auto;html=1;" edge="1" parent="1" source="NVOBJm6X1n0PsRJ2aKKN-14" target="NVOBJm6X1n0PsRJ2aKKN-19">
          <mxGeometry relative="1" as="geometry" />
        </mxCell>
        <mxCell id="NVOBJm6X1n0PsRJ2aKKN-14" value="" style="verticalLabelPosition=bottom;sketch=0;aspect=fixed;html=1;verticalAlign=top;strokeColor=none;align=center;outlineConnect=0;shape=mxgraph.citrix.process;" vertex="1" parent="1">
          <mxGeometry x="770" y="382" width="52" height="62" as="geometry" />
        </mxCell>
        <mxCell id="NVOBJm6X1n0PsRJ2aKKN-19" value="&lt;ol&gt;&lt;li&gt;&lt;font style=&quot;font-size: 20px;&quot;&gt;Registrar notificaciones&lt;/font&gt;&lt;/li&gt;&lt;li&gt;&lt;font style=&quot;font-size: 20px;&quot;&gt;Registrar eventos monetizables&lt;/font&gt;&lt;/li&gt;&lt;li&gt;&lt;font style=&quot;font-size: 20px;&quot;&gt;Registrar cambios en contratos&lt;/font&gt;&lt;/li&gt;&lt;li&gt;&lt;font style=&quot;font-size: 20px;&quot;&gt;Registrar recordatorios de facturas por vencer y vencidas.&lt;/font&gt;&lt;/li&gt;&lt;/ol&gt;" style="whiteSpace=wrap;html=1;verticalAlign=top;strokeColor=none;sketch=0;" vertex="1" parent="1">
          <mxGeometry x="880" y="334" width="333" height="159" as="geometry" />
        </mxCell>
        <mxCell id="NVOBJm6X1n0PsRJ2aKKN-32" value="&lt;font style=&quot;font-size: 28px;&quot;&gt;&lt;u&gt;VersiÃ³n anterior&lt;/u&gt;&lt;/font&gt;" style="text;html=1;align=center;verticalAlign=middle;resizable=0;points=[];autosize=1;strokeColor=none;fillColor=none;" vertex="1" parent="1">
          <mxGeometry x="475" y="200" width="220" height="50" as="geometry" />
        </mxCell>
      </root>
    </mxGraphModel>
  </diagram>
  <diagram id="rERo-sqvMlCJQUnuazX1" name="new">
    <mxGraphModel dx="1818" dy="847" grid="1" gridSize="10" guides="1" tooltips="1" connect="1" arrows="1" fold="1" page="1" pageScale="1" pageWidth="850" pageHeight="1100" math="0" shadow="0">
      <root>
        <mxCell id="0" />
        <mxCell id="1" parent="0" />
        <mxCell id="dztu3WLV28FflPGB87Q6-1" style="edgeStyle=orthogonalEdgeStyle;rounded=0;orthogonalLoop=1;jettySize=auto;html=1;" edge="1" parent="1" source="dztu3WLV28FflPGB87Q6-2" target="dztu3WLV28FflPGB87Q6-6">
          <mxGeometry relative="1" as="geometry" />
        </mxCell>
        <mxCell id="dztu3WLV28FflPGB87Q6-2" value="Customer" style="outlineConnect=0;gradientColor=none;fontColor=#545B64;strokeColor=none;fillColor=#879196;dashed=0;verticalLabelPosition=bottom;verticalAlign=top;align=center;html=1;fontSize=12;fontStyle=0;aspect=fixed;shape=mxgraph.aws4.illustration_desktop;pointerEvents=1;labelBackgroundColor=#ffffff;" vertex="1" parent="1">
          <mxGeometry x="-9" y="1130" width="100" height="91" as="geometry" />
        </mxCell>
        <mxCell id="dztu3WLV28FflPGB87Q6-3" value="" style="edgeStyle=orthogonalEdgeStyle;rounded=0;orthogonalLoop=1;jettySize=auto;html=1;" edge="1" parent="1" source="dztu3WLV28FflPGB87Q6-4" target="dztu3WLV28FflPGB87Q6-8">
          <mxGeometry relative="1" as="geometry" />
        </mxCell>
        <mxCell id="dztu3WLV28FflPGB87Q6-4" value="Lambda" style="outlineConnect=0;fontColor=#232F3E;gradientColor=#F78E04;gradientDirection=north;fillColor=#D05C17;strokeColor=#ffffff;dashed=0;verticalLabelPosition=bottom;verticalAlign=top;align=center;html=1;fontSize=12;fontStyle=0;aspect=fixed;shape=mxgraph.aws4.resourceIcon;resIcon=mxgraph.aws4.lambda;labelBackgroundColor=#ffffff;spacingTop=3;" vertex="1" parent="1">
          <mxGeometry x="260" y="1130" width="90" height="90" as="geometry" />
        </mxCell>
        <mxCell id="dztu3WLV28FflPGB87Q6-5" style="edgeStyle=orthogonalEdgeStyle;rounded=0;orthogonalLoop=1;jettySize=auto;html=1;" edge="1" parent="1" source="dztu3WLV28FflPGB87Q6-6" target="dztu3WLV28FflPGB87Q6-4">
          <mxGeometry relative="1" as="geometry" />
        </mxCell>
        <mxCell id="dztu3WLV28FflPGB87Q6-6" value="Amazon API&lt;br&gt;Gateway&lt;br&gt;" style="outlineConnect=0;fontColor=#232F3E;gradientColor=#945DF2;gradientDirection=north;fillColor=#5A30B5;strokeColor=#ffffff;dashed=0;verticalLabelPosition=bottom;verticalAlign=top;align=center;html=1;fontSize=12;fontStyle=0;aspect=fixed;shape=mxgraph.aws4.resourceIcon;resIcon=mxgraph.aws4.api_gateway;labelBackgroundColor=#ffffff;" vertex="1" parent="1">
          <mxGeometry x="130.5" y="1136.5" width="78" height="78" as="geometry" />
        </mxCell>
        <mxCell id="dztu3WLV28FflPGB87Q6-7" value="" style="edgeStyle=orthogonalEdgeStyle;rounded=0;orthogonalLoop=1;jettySize=auto;html=1;" edge="1" parent="1" source="dztu3WLV28FflPGB87Q6-8" target="dztu3WLV28FflPGB87Q6-10">
          <mxGeometry relative="1" as="geometry" />
        </mxCell>
        <mxCell id="dztu3WLV28FflPGB87Q6-8" value="Dynamo DB&lt;div&gt;Cambio&lt;/div&gt;" style="outlineConnect=0;dashed=0;verticalLabelPosition=bottom;verticalAlign=top;align=center;html=1;shape=mxgraph.aws3.dynamo_db;fillColor=#2E73B8;gradientColor=none;" vertex="1" parent="1">
          <mxGeometry x="393" y="1134" width="72" height="81" as="geometry" />
        </mxCell>
        <mxCell id="dztu3WLV28FflPGB87Q6-9" value="" style="edgeStyle=orthogonalEdgeStyle;rounded=0;orthogonalLoop=1;jettySize=auto;html=1;" edge="1" parent="1" source="dztu3WLV28FflPGB87Q6-10" target="dztu3WLV28FflPGB87Q6-11">
          <mxGeometry relative="1" as="geometry" />
        </mxCell>
        <mxCell id="dztu3WLV28FflPGB87Q6-10" value="DynamoDB&lt;div&gt;Stream&lt;/div&gt;&lt;div&gt;Evento&lt;/div&gt;" style="sketch=0;outlineConnect=0;fontColor=#232F3E;gradientColor=none;fillColor=#C925D1;strokeColor=none;dashed=0;verticalLabelPosition=bottom;verticalAlign=top;align=center;html=1;fontSize=12;fontStyle=0;aspect=fixed;pointerEvents=1;shape=mxgraph.aws4.dynamodb_stream;" vertex="1" parent="1">
          <mxGeometry x="510" y="1136" width="78" height="78" as="geometry" />
        </mxCell>
        <mxCell id="dztu3WLV28FflPGB87Q6-11" value="Lambda&lt;div&gt;Procesador&lt;/div&gt;&lt;div&gt;de eventos&lt;/div&gt;" style="outlineConnect=0;fontColor=#232F3E;gradientColor=#F78E04;gradientDirection=north;fillColor=#D05C17;strokeColor=#ffffff;dashed=0;verticalLabelPosition=bottom;verticalAlign=top;align=center;html=1;fontSize=12;fontStyle=0;aspect=fixed;shape=mxgraph.aws4.resourceIcon;resIcon=mxgraph.aws4.lambda;labelBackgroundColor=#ffffff;spacingTop=3;" vertex="1" parent="1">
          <mxGeometry x="620" y="1131" width="90" height="90" as="geometry" />
        </mxCell>
        <mxCell id="dztu3WLV28FflPGB87Q6-12" value="&lt;font style=&quot;font-size: 28px;&quot;&gt;&lt;u&gt;VersiÃ³n mejorada&lt;/u&gt;&lt;/font&gt;" style="text;html=1;align=center;verticalAlign=middle;resizable=0;points=[];autosize=1;strokeColor=none;fillColor=none;" vertex="1" parent="1">
          <mxGeometry x="465" y="860" width="240" height="50" as="geometry" />
        </mxCell>
        <mxCell id="dztu3WLV28FflPGB87Q6-13" value="" style="sketch=0;points=[[0,0,0],[0.25,0,0],[0.5,0,0],[0.75,0,0],[1,0,0],[0,1,0],[0.25,1,0],[0.5,1,0],[0.75,1,0],[1,1,0],[0,0.25,0],[0,0.5,0],[0,0.75,0],[1,0.25,0],[1,0.5,0],[1,0.75,0]];outlineConnect=0;fontColor=#232F3E;fillColor=#E7157B;strokeColor=#ffffff;dashed=0;verticalLabelPosition=bottom;verticalAlign=top;align=center;html=1;fontSize=12;fontStyle=0;aspect=fixed;shape=mxgraph.aws4.resourceIcon;resIcon=mxgraph.aws4.sqs;" vertex="1" parent="1">
          <mxGeometry x="810" y="966.98" width="78" height="78" as="geometry" />
        </mxCell>
        <mxCell id="dztu3WLV28FflPGB87Q6-14" value="" style="sketch=0;points=[[0,0,0],[0.25,0,0],[0.5,0,0],[0.75,0,0],[1,0,0],[0,1,0],[0.25,1,0],[0.5,1,0],[0.75,1,0],[1,1,0],[0,0.25,0],[0,0.5,0],[0,0.75,0],[1,0.25,0],[1,0.5,0],[1,0.75,0]];outlineConnect=0;fontColor=#232F3E;fillColor=#E7157B;strokeColor=#ffffff;dashed=0;verticalLabelPosition=bottom;verticalAlign=top;align=center;html=1;fontSize=12;fontStyle=0;aspect=fixed;shape=mxgraph.aws4.resourceIcon;resIcon=mxgraph.aws4.sqs;" vertex="1" parent="1">
          <mxGeometry x="810" y="1077.98" width="78" height="78" as="geometry" />
        </mxCell>
        <mxCell id="dztu3WLV28FflPGB87Q6-15" value="" style="sketch=0;points=[[0,0,0],[0.25,0,0],[0.5,0,0],[0.75,0,0],[1,0,0],[0,1,0],[0.25,1,0],[0.5,1,0],[0.75,1,0],[1,1,0],[0,0.25,0],[0,0.5,0],[0,0.75,0],[1,0.25,0],[1,0.5,0],[1,0.75,0]];outlineConnect=0;fontColor=#232F3E;fillColor=#E7157B;strokeColor=#ffffff;dashed=0;verticalLabelPosition=bottom;verticalAlign=top;align=center;html=1;fontSize=12;fontStyle=0;aspect=fixed;shape=mxgraph.aws4.resourceIcon;resIcon=mxgraph.aws4.sqs;" vertex="1" parent="1">
          <mxGeometry x="810" y="1196.98" width="78" height="78" as="geometry" />
        </mxCell>
        <mxCell id="dztu3WLV28FflPGB87Q6-16" value="" style="sketch=0;points=[[0,0,0],[0.25,0,0],[0.5,0,0],[0.75,0,0],[1,0,0],[0,1,0],[0.25,1,0],[0.5,1,0],[0.75,1,0],[1,1,0],[0,0.25,0],[0,0.5,0],[0,0.75,0],[1,0.25,0],[1,0.5,0],[1,0.75,0]];outlineConnect=0;fontColor=#232F3E;fillColor=#E7157B;strokeColor=#ffffff;dashed=0;verticalLabelPosition=bottom;verticalAlign=top;align=center;html=1;fontSize=12;fontStyle=0;aspect=fixed;shape=mxgraph.aws4.resourceIcon;resIcon=mxgraph.aws4.sqs;" vertex="1" parent="1">
          <mxGeometry x="810" y="1326.98" width="78" height="78" as="geometry" />
        </mxCell>
        <mxCell id="dztu3WLV28FflPGB87Q6-17" style="edgeStyle=orthogonalEdgeStyle;rounded=0;orthogonalLoop=1;jettySize=auto;html=1;entryX=0;entryY=0.5;entryDx=0;entryDy=0;entryPerimeter=0;" edge="1" parent="1" source="dztu3WLV28FflPGB87Q6-11" target="dztu3WLV28FflPGB87Q6-13">
          <mxGeometry relative="1" as="geometry" />
        </mxCell>
        <mxCell id="dztu3WLV28FflPGB87Q6-18" style="edgeStyle=orthogonalEdgeStyle;rounded=0;orthogonalLoop=1;jettySize=auto;html=1;entryX=0;entryY=0.5;entryDx=0;entryDy=0;entryPerimeter=0;" edge="1" parent="1" source="dztu3WLV28FflPGB87Q6-11" target="dztu3WLV28FflPGB87Q6-14">
          <mxGeometry relative="1" as="geometry" />
        </mxCell>
        <mxCell id="dztu3WLV28FflPGB87Q6-19" style="edgeStyle=orthogonalEdgeStyle;rounded=0;orthogonalLoop=1;jettySize=auto;html=1;entryX=0;entryY=0.5;entryDx=0;entryDy=0;entryPerimeter=0;" edge="1" parent="1" source="dztu3WLV28FflPGB87Q6-11" target="dztu3WLV28FflPGB87Q6-15">
          <mxGeometry relative="1" as="geometry" />
        </mxCell>
        <mxCell id="dztu3WLV28FflPGB87Q6-20" style="edgeStyle=orthogonalEdgeStyle;rounded=0;orthogonalLoop=1;jettySize=auto;html=1;entryX=0;entryY=0.5;entryDx=0;entryDy=0;entryPerimeter=0;" edge="1" parent="1" source="dztu3WLV28FflPGB87Q6-11" target="dztu3WLV28FflPGB87Q6-16">
          <mxGeometry relative="1" as="geometry" />
        </mxCell>
        <mxCell id="dztu3WLV28FflPGB87Q6-21" value="&lt;span style=&quot;font-size: 21px; text-wrap-mode: wrap; background-color: transparent; color: light-dark(rgb(0, 0, 0), rgb(255, 255, 255));&quot;&gt;Registrar notificaciones&lt;/span&gt;" style="text;html=1;align=left;verticalAlign=middle;resizable=0;points=[];autosize=1;strokeColor=none;fillColor=none;" vertex="1" parent="1">
          <mxGeometry x="900" y="985.98" width="240" height="40" as="geometry" />
        </mxCell>
        <mxCell id="dztu3WLV28FflPGB87Q6-22" value="&lt;span style=&quot;font-size: 20px; text-align: center; text-wrap-mode: wrap; background-color: transparent; color: light-dark(rgb(0, 0, 0), rgb(255, 255, 255));&quot;&gt;Registrar eventos monetizables&lt;/span&gt;" style="text;html=1;align=left;verticalAlign=middle;resizable=0;points=[];autosize=1;strokeColor=none;fillColor=none;" vertex="1" parent="1">
          <mxGeometry x="900" y="1096.98" width="300" height="40" as="geometry" />
        </mxCell>
        <mxCell id="dztu3WLV28FflPGB87Q6-23" value="&lt;span style=&quot;font-size: 20px; text-wrap-mode: wrap; background-color: transparent; color: light-dark(rgb(0, 0, 0), rgb(255, 255, 255));&quot;&gt;Registrar cambios en contratos&lt;/span&gt;" style="text;html=1;align=left;verticalAlign=middle;resizable=0;points=[];autosize=1;strokeColor=none;fillColor=none;" vertex="1" parent="1">
          <mxGeometry x="900" y="1226.98" width="300" height="40" as="geometry" />
        </mxCell>
        <mxCell id="dztu3WLV28FflPGB87Q6-24" value="&lt;span style=&quot;font-size: 20px; text-align: center; text-wrap-mode: wrap; background-color: transparent; color: light-dark(rgb(0, 0, 0), rgb(255, 255, 255));&quot;&gt;Registrar recordatorios de facturas por vencer y vencidas.&lt;/span&gt;" style="text;html=1;align=left;verticalAlign=middle;resizable=0;points=[];autosize=1;strokeColor=none;fillColor=none;" vertex="1" parent="1">
          <mxGeometry x="900" y="1360" width="540" height="40" as="geometry" />
        </mxCell>
        <mxCell id="dztu3WLV28FflPGB87Q6-25" value="" style="sketch=0;points=[[0,0,0],[0.25,0,0],[0.5,0,0],[0.75,0,0],[1,0,0],[0,1,0],[0.25,1,0],[0.5,1,0],[0.75,1,0],[1,1,0],[0,0.25,0],[0,0.5,0],[0,0.75,0],[1,0.25,0],[1,0.5,0],[1,0.75,0]];outlineConnect=0;fontColor=#232F3E;fillColor=#E7157B;strokeColor=#ffffff;dashed=0;verticalLabelPosition=bottom;verticalAlign=top;align=center;html=1;fontSize=12;fontStyle=0;aspect=fixed;shape=mxgraph.aws4.resourceIcon;resIcon=mxgraph.aws4.sqs;" vertex="1" parent="1">
          <mxGeometry x="1062" y="966.98" width="78" height="78" as="geometry" />
        </mxCell>
        <mxCell id="dztu3WLV28FflPGB87Q6-26" value="" style="sketch=0;points=[[0,0,0],[0.25,0,0],[0.5,0,0],[0.75,0,0],[1,0,0],[0,1,0],[0.25,1,0],[0.5,1,0],[0.75,1,0],[1,1,0],[0,0.25,0],[0,0.5,0],[0,0.75,0],[1,0.25,0],[1,0.5,0],[1,0.75,0]];outlineConnect=0;fontColor=#232F3E;fillColor=#E7157B;strokeColor=#ffffff;dashed=0;verticalLabelPosition=bottom;verticalAlign=top;align=center;html=1;fontSize=12;fontStyle=0;aspect=fixed;shape=mxgraph.aws4.resourceIcon;resIcon=mxgraph.aws4.sqs;" vertex="1" parent="1">
          <mxGeometry x="1062" y="1086.98" width="78" height="78" as="geometry" />
        </mxCell>
        <mxCell id="dztu3WLV28FflPGB87Q6-27" value="" style="sketch=0;points=[[0,0,0],[0.25,0,0],[0.5,0,0],[0.75,0,0],[1,0,0],[0,1,0],[0.25,1,0],[0.5,1,0],[0.75,1,0],[1,1,0],[0,0.25,0],[0,0.5,0],[0,0.75,0],[1,0.25,0],[1,0.5,0],[1,0.75,0]];outlineConnect=0;fontColor=#232F3E;fillColor=#E7157B;strokeColor=#ffffff;dashed=0;verticalLabelPosition=bottom;verticalAlign=top;align=center;html=1;fontSize=12;fontStyle=0;aspect=fixed;shape=mxgraph.aws4.resourceIcon;resIcon=mxgraph.aws4.sqs;" vertex="1" parent="1">
          <mxGeometry x="1062" y="1198.98" width="78" height="78" as="geometry" />
        </mxCell>
        <mxCell id="dztu3WLV28FflPGB87Q6-28" value="" style="sketch=0;points=[[0,0,0],[0.25,0,0],[0.5,0,0],[0.75,0,0],[1,0,0],[0,1,0],[0.25,1,0],[0.5,1,0],[0.75,1,0],[1,1,0],[0,0.25,0],[0,0.5,0],[0,0.75,0],[1,0.25,0],[1,0.5,0],[1,0.75,0]];outlineConnect=0;fontColor=#232F3E;fillColor=#E7157B;strokeColor=#ffffff;dashed=0;verticalLabelPosition=bottom;verticalAlign=top;align=center;html=1;fontSize=12;fontStyle=0;aspect=fixed;shape=mxgraph.aws4.resourceIcon;resIcon=mxgraph.aws4.sqs;" vertex="1" parent="1">
          <mxGeometry x="1062" y="1326.98" width="78" height="78" as="geometry" />
        </mxCell>
        <mxCell id="dztu3WLV28FflPGB87Q6-29" style="edgeStyle=orthogonalEdgeStyle;rounded=0;orthogonalLoop=1;jettySize=auto;html=1;exitX=0.5;exitY=0;exitDx=0;exitDy=0;exitPerimeter=0;entryX=0.5;entryY=0;entryDx=0;entryDy=0;entryPerimeter=0;" edge="1" parent="1" source="dztu3WLV28FflPGB87Q6-13" target="dztu3WLV28FflPGB87Q6-25">
          <mxGeometry relative="1" as="geometry" />
        </mxCell>
        <mxCell id="dztu3WLV28FflPGB87Q6-30" style="edgeStyle=orthogonalEdgeStyle;rounded=0;orthogonalLoop=1;jettySize=auto;html=1;exitX=0.5;exitY=0;exitDx=0;exitDy=0;exitPerimeter=0;entryX=0.5;entryY=0;entryDx=0;entryDy=0;entryPerimeter=0;" edge="1" parent="1" source="dztu3WLV28FflPGB87Q6-14" target="dztu3WLV28FflPGB87Q6-26">
          <mxGeometry relative="1" as="geometry" />
        </mxCell>
        <mxCell id="dztu3WLV28FflPGB87Q6-31" style="edgeStyle=orthogonalEdgeStyle;rounded=0;orthogonalLoop=1;jettySize=auto;html=1;exitX=0.5;exitY=0;exitDx=0;exitDy=0;exitPerimeter=0;entryX=0.5;entryY=0;entryDx=0;entryDy=0;entryPerimeter=0;" edge="1" parent="1" source="dztu3WLV28FflPGB87Q6-16" target="dztu3WLV28FflPGB87Q6-28">
          <mxGeometry relative="1" as="geometry" />
        </mxCell>
        <mxCell id="dztu3WLV28FflPGB87Q6-32" style="edgeStyle=orthogonalEdgeStyle;rounded=0;orthogonalLoop=1;jettySize=auto;html=1;exitX=0.5;exitY=0;exitDx=0;exitDy=0;exitPerimeter=0;entryX=0.5;entryY=0;entryDx=0;entryDy=0;entryPerimeter=0;" edge="1" parent="1" source="dztu3WLV28FflPGB87Q6-15" target="dztu3WLV28FflPGB87Q6-27">
          <mxGeometry relative="1" as="geometry" />
        </mxCell>
        <mxCell id="dztu3WLV28FflPGB87Q6-33" value="&lt;font style=&quot;font-size: 17px;&quot;&gt;DLQ&lt;/font&gt;" style="text;html=1;align=center;verticalAlign=middle;resizable=0;points=[];autosize=1;strokeColor=none;fillColor=none;" vertex="1" parent="1">
          <mxGeometry x="1140" y="966.98" width="60" height="30" as="geometry" />
        </mxCell>
        <mxCell id="dztu3WLV28FflPGB87Q6-34" value="&lt;font style=&quot;font-size: 17px;&quot;&gt;DLQ&lt;/font&gt;" style="text;html=1;align=center;verticalAlign=middle;resizable=0;points=[];autosize=1;strokeColor=none;fillColor=none;" vertex="1" parent="1">
          <mxGeometry x="1140" y="1086.98" width="60" height="30" as="geometry" />
        </mxCell>
        <mxCell id="dztu3WLV28FflPGB87Q6-35" value="&lt;font style=&quot;font-size: 17px;&quot;&gt;DLQ&lt;/font&gt;" style="text;html=1;align=center;verticalAlign=middle;resizable=0;points=[];autosize=1;strokeColor=none;fillColor=none;" vertex="1" parent="1">
          <mxGeometry x="1140" y="1198.98" width="60" height="30" as="geometry" />
        </mxCell>
        <mxCell id="dztu3WLV28FflPGB87Q6-36" value="&lt;font style=&quot;font-size: 17px;&quot;&gt;DLQ&lt;/font&gt;" style="text;html=1;align=center;verticalAlign=middle;resizable=0;points=[];autosize=1;strokeColor=none;fillColor=none;" vertex="1" parent="1">
          <mxGeometry x="1140" y="1326.98" width="60" height="30" as="geometry" />
        </mxCell>
        <mxCell id="mImMFqYQMrmioWC02HWQ-1" value="&lt;font style=&quot;font-size: 14px;&quot;&gt;Reintentos limitados a 3&lt;/font&gt;" style="text;html=1;align=center;verticalAlign=middle;resizable=0;points=[];autosize=1;strokeColor=none;fillColor=none;" vertex="1" parent="1">
          <mxGeometry x="465" y="1088" width="170" height="30" as="geometry" />
        </mxCell>
      </root>
    </mxGraphModel>
  </diagram>
</mxfile>
